<svg width="60" height="60" viewBox="0 0 60 60" fill="none" xmlns="http://www.w3.org/2000/svg">
<circle cx="30" cy="30" r="28.5" stroke="#13F7D2" stroke-width="3"/>
<path fill-rule="evenodd" clip-rule="evenodd" d="M26.9889 24.2511V26.4732H23.6867C23.4888 26.4732 23.25 26.7811 23.25 27.1773V31.459C23.25 31.8154 23.4198 32.1632 23.7352 32.1632H26.9889V43.4376C26.9889 43.841 27.1664 44.2501 27.4257 44.2501H31.7967C32.1006 44.2501 32.2819 43.9493 32.2819 43.6001V32.1617H36.1179C36.4793 32.1617 36.6032 31.7598 36.6032 31.3493V27.2842C36.6032 26.8466 36.4486 26.4718 36.0694 26.4718H32.2819V23.7622C32.2819 21.8152 33.2409 22.0247 34.0096 21.8964C35.5267 21.6427 36.75 22.3653 36.75 21.1609V17.2042C36.75 16.8122 36.5559 16.5001 36.2162 16.5001H32.8642C32.2692 16.5314 31.7137 16.5941 31.2616 16.7167C30.6372 16.8849 30.6461 16.9291 30.1162 17.1728C29.9413 17.2541 29.7701 17.3781 29.6118 17.4778C29.2325 17.7187 28.6081 18.3345 28.3463 18.7222C27.1856 20.4369 26.9877 21.9634 26.9877 24.2525L26.9889 24.2511Z" fill="#13F7D2"/>
</svg>
