<svg width="58" height="51" viewBox="0 0 58 51" fill="none" xmlns="http://www.w3.org/2000/svg">
<path fill-rule="evenodd" clip-rule="evenodd" d="M-0.000153551 3.30765C0.701875 9.62542 8.34354 24.0238 11.9203 29.418C14.568 33.4112 17.2255 36.9344 20.0459 40.389C21.1414 41.7306 27.8901 49.7996 29.3328 50.5001L37.5893 40.8045C38.5744 39.5646 39.4254 38.6758 40.3932 37.4011C43.2672 33.6169 47.5641 26.8737 49.6727 22.5856L26.6843 17.3153C30.0719 23.2043 28.6612 22.9598 32.2446 23.7644C35.2889 24.4476 39.2517 25.5471 42.2664 25.9543C41.6286 27.5511 37.2559 33.8069 36.056 35.35C34.8815 36.8601 29.9682 43.172 28.7567 43.8759C28.2728 42.7623 26.4679 40.7525 25.6103 39.6447C19.1143 31.2519 15.6 27.0414 10.8891 17.0757C10.0406 15.2815 6.77735 7.99145 6.64155 6.53344C14.0651 5.81559 21.487 4.77061 29.0661 4.76814C36.6239 4.76566 44.268 5.73629 51.699 6.54501L46.5576 18.1331L51.4035 19.2855L57.9818 3.46377C56.6049 2.48488 46.9403 1.18465 44.491 0.888094C28.5328 -1.04325 15.5951 0.362715 -0.000976562 3.30765H-0.000153551Z" fill="white" fill-opacity="0.94"/>
<path fill-rule="evenodd" clip-rule="evenodd" d="M12.6129 10.2085C16.1905 19.1201 20.8727 26.5035 26.5844 34.0587C27.2979 35.0029 28.3242 36.4188 29.1118 37.0615C30.1143 35.6084 34.9733 29.0428 35.3766 28.1069L30.6616 26.8967C30.3949 27.4304 29.539 28.5546 29.0666 28.9974C28.8871 28.8677 28.9357 28.9156 28.7044 28.6893C25.8807 25.9203 20.9953 17.6142 19.797 14.0373C22.8569 13.8316 25.6865 13.4045 28.8369 13.4492C31.9545 13.4929 35.0408 13.8514 38.0901 14.034L37.3082 15.8671L42.0776 17.1161C43.2199 14.6874 44.5886 12.4678 45.749 10.2085C38.8225 8.87934 19.7772 8.91156 12.6129 10.2077V10.2085Z" fill="white" fill-opacity="0.94"/>
</svg>
