<svg width="61" height="60" viewBox="0 0 61 60" fill="none" xmlns="http://www.w3.org/2000/svg">
<circle cx="30.107" cy="30" r="28.5" stroke="#13F7D2" stroke-width="3"/>
<path fill-rule="evenodd" clip-rule="evenodd" d="M21.572 14.4548C20.8418 16.4893 20.9874 17.2905 21.5383 19.4729C17.0333 25.8375 18.781 34.6843 28.5092 35.7712L27.1544 39.3942C19.1918 40.7112 22.5192 34.9613 15.9893 34.8093C16.052 34.9087 16.1731 34.9258 16.2118 35.086L18.2508 37.4496C20.1099 39.9432 20.3869 43.2975 27.4546 42.4002L27.4494 46.7646L36.7784 46.7622C36.7617 42.6042 37.2367 39.4889 35.7949 35.8468C46.9007 34.2734 45.8827 24.6102 43.7471 20.8953C42.6129 18.9222 42.7611 20.4409 43.006 18.1871C43.2385 16.0469 43.1253 16.0472 42.7152 14.1176C39.5436 14.7908 39.3488 15.9567 37.8775 17.2042C34.7446 16.0505 28.9879 15.586 26.3025 17.2779L23.1481 14.5188C23.1032 14.5023 22.6338 14.3896 22.5441 14.3786C21.0033 14.1877 21.9958 14.3457 21.5722 14.455L21.572 14.4548Z" fill="#13F7D2"/>
</svg>
