<svg width="60" height="60" viewBox="0 0 60 60" fill="none" xmlns="http://www.w3.org/2000/svg">
<circle cx="30" cy="30" r="28.5" stroke="#13F7D2" stroke-width="3"/>
<g clip-path="url(#clip0)">
<path fill-rule="evenodd" clip-rule="evenodd" d="M20.5742 39.7029H17.2871V20.2982C18.8508 20.2982 19.0563 20.1125 19.8913 20.6529C20.1535 20.8226 20.3418 20.9226 20.6114 21.0859L26.2253 24.504C26.7335 24.8016 27.1687 25.0873 27.6603 25.3749C27.8886 25.5085 28.092 25.6409 28.3357 25.7884L30.4999 27.0835C31.7108 26.4531 34.6867 24.5178 36.1279 23.6794C36.6134 23.3969 37.048 23.1082 37.5216 22.8311L41.0702 20.6787C41.9458 20.1087 42.0807 20.2982 43.7128 20.2982V39.7029H40.4256V25.4348C39.5674 25.8816 34.0585 29.3844 33.0011 30.0518L31.1449 31.2061C30.9474 31.3355 30.7144 31.4742 30.4997 31.5859C30.075 31.3649 29.6813 31.0952 29.2625 30.8374C29.0445 30.7032 28.907 30.5999 28.6745 30.4647C27.3166 29.6753 25.7101 28.5617 24.3328 27.7609L20.5739 25.4348V39.703L20.5742 39.7029ZM14 20.108V39.8931C14 40.3515 14.1362 40.7953 14.2987 41.1213C14.3969 41.3181 14.4751 41.4252 14.5916 41.594L14.9083 41.98C14.9175 41.9893 14.9309 42.0027 14.9403 42.0119C15.4423 42.5026 16.2428 43.0005 17.2227 43.0005H43.7773C44.7488 43.0005 45.5466 42.5136 46.0597 42.0119L46.3562 41.6694C46.7232 41.166 47 40.607 47 39.8931V20.108C47 19.6496 46.8638 19.2058 46.7013 18.8799C46.6031 18.683 46.5249 18.5759 46.4084 18.4071C46.3446 18.3148 46.3166 18.2758 46.2432 18.1892L46.027 17.9581C45.5226 17.483 44.7508 17.0007 43.7774 17.0007H17.2228C16.2569 17.0007 15.4884 17.4728 14.9732 17.9581C14.9636 17.9671 14.9499 17.98 14.9405 17.9893L14.644 18.3318C14.5325 18.4848 14.4116 18.6631 14.3204 18.8377C14.1543 19.156 14.0002 19.6217 14.0002 20.1081L14 20.108Z" fill="#13F7D2"/>
</g>
<defs>
<clipPath id="clip0">
<rect width="33" height="26" fill="white" transform="translate(14 17)"/>
</clipPath>
</defs>
</svg>
