<svg width="61" height="60" viewBox="0 0 61 60" fill="none" xmlns="http://www.w3.org/2000/svg">
<circle cx="30.5605" cy="30" r="28.5" stroke="#13F7D2" stroke-width="3"/>
<g clip-path="url(#clip0)">
<path fill-rule="evenodd" clip-rule="evenodd" d="M16.734 30.4411C16.734 29.4073 16.6291 28.2189 16.78 27.2223C17.1097 25.044 16.1573 21.4954 18.6655 18.9872C21.1692 16.4835 24.775 17.4265 26.8087 17.1187C27.5283 17.0098 32.6169 16.9926 33.3381 17.1017C35.5721 17.4399 41.092 16.1767 42.853 20.9721C43.7041 23.2896 43.2358 25.7701 43.4417 27.1305C43.5507 27.8501 43.5678 32.9387 43.4587 33.6599C43.129 35.8382 44.0814 39.3868 41.5732 41.8949C40.8839 42.5843 40.5752 42.8124 39.5883 43.1748C38.6744 43.5105 37.8317 43.5809 36.7417 43.7017C35.6516 43.8224 34.4982 43.6018 33.43 43.7635C32.7103 43.8724 27.6217 43.8896 26.9006 43.7804C25.3903 43.5518 23.087 44.0304 20.7296 43.2044C15.848 41.4939 17.1153 35.855 16.7969 33.7517C16.6417 32.7259 16.734 31.5236 16.734 30.4411V30.4411ZM13.7958 25.544V35.5558C13.7958 38.0697 14.0448 40.4705 15.2547 42.4763C17.3853 46.0083 20.9516 46.7646 25.0047 46.7646H35.234C37.1364 46.7646 38.6724 46.6034 40.1955 46.176C42.8745 45.4241 45.0102 43.2422 45.831 40.6027C46.2835 39.1475 46.4429 37.4136 46.4429 35.5558V25.3264C46.4429 22.0882 45.999 19.0048 43.6982 16.7534C43.2792 16.3435 42.5847 15.8241 42.0864 15.5357C39.9904 14.3228 37.619 14.1176 35.0164 14.1176H25.2223C23.2708 14.1176 21.6827 14.2587 20.1279 14.682C17.3998 15.4249 15.1646 17.6667 14.3832 20.3638C13.934 21.9144 13.7958 23.5949 13.7958 25.544L13.7958 25.544Z" fill="#13F7D2"/>
<path fill-rule="evenodd" clip-rule="evenodd" d="M24.6782 30.6588C24.5979 30.2441 25.0074 28.7021 25.1268 28.3869C26.1288 25.7434 29.2374 24.3358 32.1736 25.4487C32.8224 25.6946 33.3236 26.0748 33.838 26.5049C36.6044 28.8187 36.2112 35.2631 30.3051 35.8577C28.9594 35.9932 27.4168 35.2273 26.4007 34.3774C25.6046 33.7116 24.9567 32.3739 24.8049 31.2938L24.6782 30.6588V30.6588ZM21.7399 29.7883C21.7399 32.5541 22.1682 34.4071 24.1608 36.3998C27.4229 39.6619 32.8158 39.6619 36.0779 36.3998C39.34 33.1376 39.34 27.7447 36.0779 24.4826C32.8158 21.2205 27.4229 21.2205 24.1608 24.4826C23.0812 25.5623 21.7399 27.6923 21.7399 29.7883Z" fill="#13F7D2"/>
<path fill-rule="evenodd" clip-rule="evenodd" d="M36.8664 21.4088C36.8664 24.8227 40.784 23.903 40.784 22.0618V21.4088C40.784 20.6759 39.8846 19.7764 39.1517 19.7764H38.4987C37.8061 19.7764 36.8663 20.7162 36.8663 21.4088H36.8664Z" fill="#13F7D2"/>
</g>
<defs>
<clipPath id="clip0">
<rect width="32.6471" height="32.6471" fill="white" transform="translate(13.7958 14.1176)"/>
</clipPath>
</defs>
</svg>
