<svg width="61" height="60" viewBox="0 0 61 60" fill="none" xmlns="http://www.w3.org/2000/svg">
<circle cx="30.1736" cy="30" r="28.5" stroke="#13F7D2" stroke-width="3"/>
<g clip-path="url(#clip0)">
<path fill-rule="evenodd" clip-rule="evenodd" d="M15.173 39.8203V40.2558C17.5718 42.4105 21.9681 43.6829 25.8419 43.4791C33.1142 43.0959 38.7661 38.1016 41.2045 30.6989C41.9309 28.4935 42.0489 26.8624 42.1929 24.3403C42.2554 23.2459 42.6987 23.483 43.7078 22.2973C44.2197 21.6957 44.6464 20.9588 45.1726 20.3033V19.8611C44.5163 19.3173 43.94 19.9259 43.1507 20.114C43.5393 19.2986 44.4869 18.2773 44.2879 17.0808C42.9354 16.6495 41.278 19.3733 39.7345 18.0041C35.9044 14.6065 28.9603 17.0513 29.3674 24.4889C24.7054 24.0758 21.6205 21.9062 18.7128 18.6829C17.6977 17.5578 18.2473 17.7197 17.3739 17.7214C15.6181 20.8691 16.4082 23.4415 17.8357 26.0694C17.274 25.8751 16.954 25.4459 16.53 25.844C15.8526 26.5983 17.0547 31.0903 19.3547 32.2075L18.5017 32.4064C18.3822 33.7843 19.5202 35.1792 20.0947 35.8165C21.247 37.0944 21.6149 36.8976 23.0537 37.7121C22.4626 38.3984 20.6469 39.0398 19.5692 39.3221C17.349 39.9033 15.8345 39.2495 15.1726 39.8211L15.173 39.8203Z" fill="#13F7D2"/>
</g>
<defs>
<clipPath id="clip0">
<rect width="30" height="27" fill="white" transform="translate(15.1736 16.4999)"/>
</clipPath>
</defs>
</svg>
